{
  "asset": {
    "version": "2.0",
    "generator": "babylon.js glTF exporter for Maya 2018 v20200228.3 (with minor hand modifications); stripped for flight runtime wearable POC",
    "copyright": "Flight Helmet glTF Sample Asset, CC0 1.0 Universal, converted from Maya by Gary Hsu",
    "extras": {
      "flightRuntimeNotes": "Scene pruned to GlassPlastic, LeatherParts, and Lenses nodes for VRM head attachment."
    }
  },
  "extensionsUsed": [
    "KHR_materials_transmission"
  ],
  "scene": 0,
  "scenes": [
    {
      "nodes": [
        2,
        4,
        5
      ]
    }
  ],
  "nodes": [
    {
      "mesh": 0,
      "name": "Hose_low"
    },
    {
      "mesh": 1,
      "name": "RubberWood_low"
    },
    {
      "mesh": 2,
      "name": "HelmetGlassPlastic_low"
    },
    {
      "mesh": 3,
      "name": "MetalParts_low"
    },
    {
      "mesh": 4,
      "name": "HelmetLeather_low"
    },
    {
      "mesh": 5,
      "name": "HelmetLenses_low"
    }
  ],
  "meshes": [
    {
      "primitives": [
        {
          "attributes": {
            "POSITION": 1,
            "TANGENT": 2,
            "NORMAL": 3,
            "TEXCOORD_0": 4
          },
          "indices": 0,
          "material": 0
        }
      ],
      "name": "Hose_low"
    },
    {
      "primitives": [
        {
          "attributes": {
            "POSITION": 6,
            "TANGENT": 7,
            "NORMAL": 8,
            "TEXCOORD_0": 9
          },
          "indices": 5,
          "material": 1
        }
      ],
      "name": "RubberWood_low"
    },
    {
      "primitives": [
        {
          "attributes": {
            "POSITION": 11,
            "TANGENT": 12,
            "NORMAL": 13,
            "TEXCOORD_0": 14
          },
          "indices": 10,
          "material": 2
        }
      ],
      "name": "GlassPlastic_low"
    },
    {
      "primitives": [
        {
          "attributes": {
            "POSITION": 16,
            "TANGENT": 17,
            "NORMAL": 18,
            "TEXCOORD_0": 19
          },
          "indices": 15,
          "material": 3
        }
      ],
      "name": "MetalParts_low"
    },
    {
      "primitives": [
        {
          "attributes": {
            "POSITION": 21,
            "TANGENT": 22,
            "NORMAL": 23,
            "TEXCOORD_0": 24
          },
          "indices": 20,
          "material": 4
        }
      ],
      "name": "LeatherParts_low"
    },
    {
      "primitives": [
        {
          "attributes": {
            "POSITION": 26,
            "TANGENT": 27,
            "NORMAL": 28,
            "TEXCOORD_0": 29
          },
          "indices": 25,
          "material": 5
        }
      ],
      "name": "Lenses_low"
    }
  ],
  "accessors": [
    {
      "bufferView": 0,
      "componentType": 5123,
      "count": 59040,
      "type": "SCALAR",
      "name": "accessorIndices"
    },
    {
      "bufferView": 1,
      "componentType": 5126,
      "count": 10472,
      "max": [
        0.10810829,
        0.356580257,
        0.190409869
      ],
      "min": [
        -0.07221258,
        0.104120225,
        -0.088394776
      ],
      "type": "VEC3",
      "name": "accessorPositions"
    },
    {
      "bufferView": 2,
      "componentType": 5126,
      "count": 10472,
      "type": "VEC4",
      "name": "accessorTangents"
    },
    {
      "bufferView": 1,
      "byteOffset": 125664,
      "componentType": 5126,
      "count": 10472,
      "type": "VEC3",
      "name": "accessorNormals"
    },
    {
      "bufferView": 3,
      "componentType": 5126,
      "count": 10472,
      "type": "VEC2",
      "name": "accessorUVs"
    },
    {
      "bufferView": 0,
      "byteOffset": 118080,
      "componentType": 5123,
      "count": 72534,
      "type": "SCALAR",
      "name": "accessorIndices"
    },
    {
      "bufferView": 1,
      "byteOffset": 251328,
      "componentType": 5126,
      "count": 13638,
      "max": [
        0.162940636,
        0.7025226,
        0.200029165
      ],
      "min": [
        -0.158857465,
        -0.0000214242937,
        -0.171545789
      ],
      "type": "VEC3",
      "name": "accessorPositions"
    },
    {
      "bufferView": 2,
      "byteOffset": 167552,
      "componentType": 5126,
      "count": 13638,
      "type": "VEC4",
      "name": "accessorTangents"
    },
    {
      "bufferView": 1,
      "byteOffset": 414984,
      "componentType": 5126,
      "count": 13638,
      "type": "VEC3",
      "name": "accessorNormals"
    },
    {
      "bufferView": 3,
      "byteOffset": 83776,
      "componentType": 5126,
      "count": 13638,
      "type": "VEC2",
      "name": "accessorUVs"
    },
    {
      "bufferView": 0,
      "byteOffset": 263148,
      "componentType": 5123,
      "count": 24408,
      "type": "SCALAR",
      "name": "accessorIndices"
    },
    {
      "bufferView": 1,
      "byteOffset": 578640,
      "componentType": 5126,
      "count": 4676,
      "max": [
        0.140494063,
        0.61828655,
        0.147373646
      ],
      "min": [
        -0.140846014,
        0.440957,
        -0.107818365
      ],
      "type": "VEC3",
      "name": "accessorPositions"
    },
    {
      "bufferView": 2,
      "byteOffset": 385760,
      "componentType": 5126,
      "count": 4676,
      "type": "VEC4",
      "name": "accessorTangents"
    },
    {
      "bufferView": 1,
      "byteOffset": 634752,
      "componentType": 5126,
      "count": 4676,
      "type": "VEC3",
      "name": "accessorNormals"
    },
    {
      "bufferView": 3,
      "byteOffset": 192880,
      "componentType": 5126,
      "count": 4676,
      "type": "VEC2",
      "name": "accessorUVs"
    },
    {
      "bufferView": 0,
      "byteOffset": 311964,
      "componentType": 5123,
      "count": 60288,
      "type": "SCALAR",
      "name": "accessorIndices"
    },
    {
      "bufferView": 1,
      "byteOffset": 690864,
      "componentType": 5126,
      "count": 13636,
      "max": [
        0.132708371,
        0.6024364,
        0.199477077
      ],
      "min": [
        -0.203642711,
        0.02116075,
        -0.147512689
      ],
      "type": "VEC3",
      "name": "accessorPositions"
    },
    {
      "bufferView": 2,
      "byteOffset": 460576,
      "componentType": 5126,
      "count": 13636,
      "type": "VEC4",
      "name": "accessorTangents"
    },
    {
      "bufferView": 1,
      "byteOffset": 854496,
      "componentType": 5126,
      "count": 13636,
      "type": "VEC3",
      "name": "accessorNormals"
    },
    {
      "bufferView": 3,
      "byteOffset": 230288,
      "componentType": 5126,
      "count": 13636,
      "type": "VEC2",
      "name": "accessorUVs"
    },
    {
      "bufferView": 0,
      "byteOffset": 432540,
      "componentType": 5123,
      "count": 65688,
      "type": "SCALAR",
      "name": "accessorIndices"
    },
    {
      "bufferView": 1,
      "byteOffset": 1018128,
      "componentType": 5126,
      "count": 12534,
      "max": [
        0.124933377,
        0.716000438,
        0.129168555
      ],
      "min": [
        -0.125863016,
        0.2958266,
        -0.1541516
      ],
      "type": "VEC3",
      "name": "accessorPositions"
    },
    {
      "bufferView": 2,
      "byteOffset": 678752,
      "componentType": 5126,
      "count": 12534,
      "type": "VEC4",
      "name": "accessorTangents"
    },
    {
      "bufferView": 1,
      "byteOffset": 1168536,
      "componentType": 5126,
      "count": 12534,
      "type": "VEC3",
      "name": "accessorNormals"
    },
    {
      "bufferView": 3,
      "byteOffset": 339376,
      "componentType": 5126,
      "count": 12534,
      "type": "VEC2",
      "name": "accessorUVs"
    },
    {
      "bufferView": 0,
      "byteOffset": 563916,
      "componentType": 5123,
      "count": 2208,
      "type": "SCALAR",
      "name": "accessorIndices"
    },
    {
      "bufferView": 1,
      "byteOffset": 1318944,
      "componentType": 5126,
      "count": 436,
      "max": [
        0.101920746,
        0.5936986,
        0.152926728
      ],
      "min": [
        -0.101920947,
        0.5300429,
        0.090174824
      ],
      "type": "VEC3",
      "name": "accessorPositions"
    },
    {
      "bufferView": 2,
      "byteOffset": 879296,
      "componentType": 5126,
      "count": 436,
      "type": "VEC4",
      "name": "accessorTangents"
    },
    {
      "bufferView": 1,
      "byteOffset": 1324176,
      "componentType": 5126,
      "count": 436,
      "type": "VEC3",
      "name": "accessorNormals"
    },
    {
      "bufferView": 3,
      "byteOffset": 439648,
      "componentType": 5126,
      "count": 436,
      "type": "VEC2",
      "name": "accessorUVs"
    }
  ],
  "bufferViews": [
    {
      "buffer": 0,
      "byteLength": 568332,
      "name": "bufferViewScalar"
    },
    {
      "buffer": 0,
      "byteOffset": 568332,
      "byteLength": 1329408,
      "byteStride": 12,
      "name": "bufferViewFloatVec3"
    },
    {
      "buffer": 0,
      "byteOffset": 1897740,
      "byteLength": 886272,
      "byteStride": 16,
      "name": "bufferViewFloatVec4"
    },
    {
      "buffer": 0,
      "byteOffset": 2784012,
      "byteLength": 443136,
      "byteStride": 8,
      "name": "bufferViewFloatVec2"
    }
  ],
  "buffers": [
    {
      "uri": "FlightHelmet.bin",
      "byteLength": 3227148
    }
  ],
  "materials": [
    {
      "pbrMetallicRoughness": {
        "baseColorFactor": [
          0.035,
          0.038,
          0.04,
          1
        ],
        "metallicFactor": 0.08,
        "roughnessFactor": 0.62
      },
      "doubleSided": true,
      "name": "HoseMat"
    },
    {
      "pbrMetallicRoughness": {
        "baseColorFactor": [
          0.16,
          0.11,
          0.075,
          1
        ],
        "metallicFactor": 0.08,
        "roughnessFactor": 0.62
      },
      "name": "RubberWoodMat"
    },
    {
      "pbrMetallicRoughness": {
        "baseColorFactor": [
          0.08,
          0.12,
          0.16,
          0.56
        ],
        "metallicFactor": 0.08,
        "roughnessFactor": 0.18
      },
      "name": "GlassPlasticMat",
      "alphaMode": "BLEND",
      "doubleSided": true
    },
    {
      "pbrMetallicRoughness": {
        "baseColorFactor": [
          0.58,
          0.56,
          0.5,
          1
        ],
        "metallicFactor": 0.72,
        "roughnessFactor": 0.62
      },
      "name": "MetalPartsMat"
    },
    {
      "pbrMetallicRoughness": {
        "baseColorFactor": [
          0.13,
          0.09,
          0.065,
          1
        ],
        "metallicFactor": 0.08,
        "roughnessFactor": 0.62
      },
      "name": "LeatherPartsMat"
    },
    {
      "extensions": {
        "KHR_materials_transmission": {
          "transmissionFactor": 1
        }
      },
      "pbrMetallicRoughness": {
        "baseColorFactor": [
          0.07,
          0.18,
          0.24,
          0.42
        ],
        "metallicFactor": 0.08,
        "roughnessFactor": 0.18
      },
      "name": "LensesMat",
      "alphaMode": "BLEND",
      "doubleSided": true
    }
  ]
}